{
    "asset" : {
        "version" : "2.0",
        "generator" : "Khronos glTF Blender I/O v0.9.4"
    },
    "extensionsUsed" : [
        "KHR_materials_unlit"
    ],
    "extensionsRequired" : [
        "KHR_materials_unlit"
    ],
    "scene" : 0,
    "scenes" : [
        {
            "name" : "Scene",
            "nodes" : [
                0
            ]
        }
    ],
    "nodes" : [
        {
            "name" : "Cube",
            "mesh" : 0
        }
    ],
    "materials" : [
        {
            "name" : "Material",
            "pbrMetallicRoughness" : {
                "baseColorTexture" : {
                    "index" : 0,
                    "texCoord" : 0
                }
            },
            "extensions" : {
                "KHR_materials_unlit" : {}
            }
        }
    ],
    "meshes" : [
        {
            "name" : "Cube",
            "primitives" : [
                {
                    "material" : 0,
                    "indices" : 3,
                    "attributes" : {
                        "TEXCOORD_0" : 0,
                        "NORMAL" : 1,
                        "POSITION" : 2
                    }
                }
            ]
        }
    ],
    "textures" : [
        {
            "sampler" : 0,
            "source" : 0
        }
    ],
    "images" : [
        {
            "name" : "cereal.jpg",
            "bufferView" : 4,
            "mimeType" : "image/jpeg"
        }
    ],
    "accessors" : [
        {
            "count" : 24,
            "bufferView" : 0,
            "componentType" : 5126,
            "type" : "VEC2"
        },
        {
            "count" : 24,
            "bufferView" : 1,
            "componentType" : 5126,
            "type" : "VEC3"
        },
        {
            "bufferView" : 2,
            "type" : "VEC3",
            "max" : [
                0.22381238639354706,
                1.4772943258285522,
                1.0000005960464478
            ],
            "count" : 24,
            "componentType" : 5126,
            "min" : [
                -0.22381244599819183,
                -1.4772943258285522,
                -1.0000003576278687
            ]
        },
        {
            "count" : 36,
            "bufferView" : 3,
            "componentType" : 5123,
            "type" : "SCALAR"
        }
    ],
    "bufferViews" : [
        {
            "byteOffset" : 0,
            "buffer" : 0,
            "byteLength" : 192
        },
        {
            "byteOffset" : 192,
            "buffer" : 0,
            "byteLength" : 288
        },
        {
            "byteOffset" : 480,
            "buffer" : 0,
            "byteLength" : 288
        },
        {
            "byteOffset" : 768,
            "buffer" : 0,
            "byteLength" : 72
        },
        {
            "byteOffset" : 840,
            "buffer" : 0,
            "byteLength" : 216894
        }
    ],
    "samplers" : [
        {
            "minFilter" : 9986,
            "magFilter" : 9729,
            "wrapT" : 10497,
            "wrapS" : 10497
        }
    ],
    "buffers" : [
        {
            "uri" : "data:application/octet-stream;base64,",
            "byteLength" : 217736
        }
    ]
}
