{
    "asset" : {
        "version" : "2.0",
        "generator" : "Khronos glTF Blender I/O v0.9.4"
    },
    "extensionsUsed" : [
        "KHR_materials_unlit"
    ],
    "extensionsRequired" : [
        "KHR_materials_unlit"
    ],
    "scene" : 0,
    "scenes" : [
        {
            "name" : "Scene",
            "nodes" : [
                0
            ]
        }
    ],
    "nodes" : [
        {
            "name" : "Sphere",
            "mesh" : 0
        }
    ],
    "materials" : [
        {
            "name" : "Material.001",
            "pbrMetallicRoughness" : {
                "baseColorTexture" : {
                    "index" : 0,
                    "texCoord" : 0
                }
            },
            "extensions" : {
                "KHR_materials_unlit" : {}
            }
        }
    ],
    "meshes" : [
        {
            "name" : "Sphere",
            "primitives" : [
                {
                    "material" : 0,
                    "indices" : 3,
                    "attributes" : {
                        "TEXCOORD_0" : 0,
                        "NORMAL" : 1,
                        "POSITION" : 2
                    }
                }
            ]
        }
    ],
    "textures" : [
        {
            "sampler" : 0,
            "source" : 0
        }
    ],
    "images" : [
        {
            "name" : "bowl.jpg",
            "bufferView" : 4,
            "mimeType" : "image/jpeg"
        }
    ],
    "accessors" : [
        {
            "count" : 304,
            "bufferView" : 0,
            "componentType" : 5126,
            "type" : "VEC2"
        },
        {
            "count" : 304,
            "bufferView" : 1,
            "componentType" : 5126,
            "type" : "VEC3"
        },
        {
            "bufferView" : 2,
            "type" : "VEC3",
            "max" : [
                0.9510564208030701,
                0.4807290732860565,
                0.9999999403953552
            ],
            "count" : 304,
            "componentType" : 5126,
            "min" : [
                -0.9510564208030701,
                -0.670086145401001,
                -0.9999998211860657
            ]
        },
        {
            "count" : 474,
            "bufferView" : 3,
            "componentType" : 5123,
            "type" : "SCALAR"
        }
    ],
    "bufferViews" : [
        {
            "byteOffset" : 0,
            "buffer" : 0,
            "byteLength" : 2432
        },
        {
            "byteOffset" : 2432,
            "buffer" : 0,
            "byteLength" : 3648
        },
        {
            "byteOffset" : 6080,
            "buffer" : 0,
            "byteLength" : 3648
        },
        {
            "byteOffset" : 9728,
            "buffer" : 0,
            "byteLength" : 948
        },
        {
            "byteOffset" : 10676,
            "buffer" : 0,
            "byteLength" : 779453
        }
    ],
    "samplers" : [
        {
            "minFilter" : 9986,
            "magFilter" : 9729,
            "wrapT" : 10497,
            "wrapS" : 10497
        }
    ],
    "buffers" : [
        {
            "uri" : "data:application/octet-stream;base64,",
            "byteLength" : 790132
        }
    ]
}
